<?xml version="1.0" encoding="UTF-8" standalone="no"?>
<!-- Uploaded to: SVG Repo, www.svgrepo.com, Transformed by: SVG Repo Mixer Tools -->

<svg
   xmlns:dc="http://purl.org/dc/elements/1.1/"
   xmlns:cc="http://creativecommons.org/ns#"
   xmlns:rdf="http://www.w3.org/1999/02/22-rdf-syntax-ns#"
   xmlns:svg="http://www.w3.org/2000/svg"
   xmlns="http://www.w3.org/2000/svg"
   xmlns:sodipodi="http://sodipodi.sourceforge.net/DTD/sodipodi-0.dtd"
   xmlns:inkscape="http://www.inkscape.org/namespaces/inkscape"
   height="16.347"
   width="17.161997"
   version="1.1"
   id="_x32_"
   viewBox="0 0 10.983678 10.46208"
   xml:space="preserve"
   sodipodi:docname="mask.svg"
   style="fill:#000000"
   inkscape:version="0.92.3 (2405546, 2018-03-11)"><metadata
   id="metadata18"><rdf:RDF><cc:Work
       rdf:about=""><dc:format>image/svg+xml</dc:format><dc:type
         rdf:resource="http://purl.org/dc/dcmitype/StillImage" /><dc:title></dc:title></cc:Work></rdf:RDF></metadata><defs
   id="defs16" /><sodipodi:namedview
   pagecolor="#ffffff"
   bordercolor="#666666"
   borderopacity="1"
   objecttolerance="10"
   gridtolerance="10"
   guidetolerance="10"
   inkscape:pageopacity="0"
   inkscape:pageshadow="2"
   inkscape:window-width="1920"
   inkscape:window-height="974"
   id="namedview14"
   showgrid="false"
   fit-margin-top="0"
   fit-margin-left="0"
   fit-margin-right="0"
   fit-margin-bottom="0"
   inkscape:zoom="2.36"
   inkscape:cx="-0.3471151"
   inkscape:cy="-7.9577304"
   inkscape:window-x="-11"
   inkscape:window-y="-11"
   inkscape:window-maximized="1"
   inkscape:current-layer="_x32_" />

<g
   id="SVGRepo_bgCarrier"
   style="stroke-width:0"
   transform="translate(-0.0015,-501.53842)" />

<g
   id="SVGRepo_tracerCarrier"
   style="stroke-linecap:round;stroke-linejoin:round"
   transform="translate(-0.0015,-501.53842)" />

<g
   id="SVGRepo_iconCarrier"
   transform="matrix(0.0214526,0,0,0.02043373,-3.21789e-5,0)"> <style
   type="text/css"
   id="style4"> .st0{fill:#5a6168;} </style> <g
   id="g10"> <path
   class="st0"
   d="m 97.092,475.308 c -3.254,3.245 -8.523,3.245 -11.76,0 L 36.69,426.666 c -3.236,-3.236 -3.236,-8.505 0,-11.751 l 46.459,-46.458 -24.22,-24.22 -46.458,46.45 c -16.626,16.644 -16.626,43.573 0,60.208 l 48.642,48.642 c 16.635,16.618 43.565,16.618 60.2,0 l 46.458,-46.459 -24.22,-24.22 z"
   id="path6"
   inkscape:connector-curvature="0"
   style="fill:#5a6168" /> <path
   class="st0"
   d="m 302.471,0 -12.027,14.252 -210.84,249.78 c -23.158,27.498 -21.452,68.12 3.956,93.552 l 70.854,70.854 c 25.441,25.408 66.063,27.115 93.545,3.956 l 264.04,-222.859 z m -76.608,406.209 c -13.866,11.693 -34.398,10.84 -47.22,-1.999 l -70.854,-70.863 c -12.83,-12.813 -13.699,-33.362 -1.99,-47.219 l 31.596,-37.434 125.911,125.91 z M 329.025,319.13 192.861,182.974 277.791,82.363 429.636,234.209 Z M 288.873,69.224 304.604,50.599 461.409,207.396 442.775,223.119 Z"
   id="path8"
   inkscape:connector-curvature="0"
   style="fill:#5a6168" /> </g> </g>

</svg>