<?xml version="1.0" encoding="UTF-8" standalone="no"?>
<svg
   class="svg-icon"
   style="overflow:hidden;fill:currentColor"
   viewBox="0 0 17.094 17.094"
   version="1.1"
   id="svg2"
   sodipodi:docname="back-back-back-back_-jurassic.svg"
   width="17.094"
   height="17.094"
   inkscape:version="1.3 (0e150ed6c4, 2023-07-21)"
   xmlns:inkscape="http://www.inkscape.org/namespaces/inkscape"
   xmlns:sodipodi="http://sodipodi.sourceforge.net/DTD/sodipodi-0.dtd"
   xmlns="http://www.w3.org/2000/svg"
   xmlns:svg="http://www.w3.org/2000/svg">
  <defs
     id="defs2" />
  <sodipodi:namedview
     id="namedview2"
     pagecolor="#ffffff"
     bordercolor="#000000"
     borderopacity="0.25"
     inkscape:showpageshadow="2"
     inkscape:pageopacity="0.0"
     inkscape:pagecheckerboard="0"
     inkscape:deskcolor="#d1d1d1"
     inkscape:zoom="9.0708542"
     inkscape:cx="9.8667665"
     inkscape:cy="18.575979"
     inkscape:window-width="1920"
     inkscape:window-height="1017"
     inkscape:window-x="-8"
     inkscape:window-y="-8"
     inkscape:window-maximized="1"
     inkscape:current-layer="svg2" />
  <path
     d="m 0,8.547 c 0,4.7123 3.8347,8.547 8.547,8.547 4.71229,0 8.547,-3.8347 8.547,-8.547 C 17.094,3.83471 13.25929,0 8.547,0 3.8347,0 0,3.83471 0,8.547 Z m 1.221,0 c 0,-4.04074 3.28525,-7.326 7.326,-7.326 4.04074,0 7.326,3.28526 7.326,7.326 0,4.04075 -3.28526,7.326 -7.326,7.326 -4.04075,0 -7.326,-3.28525 -7.326,-7.326 z"
     fill="#47444f"
     id="path1"
     style="fill:#5a6168;fill-opacity:1;stroke-width:0.0190782" />
  <path
     d="M 9.24526,4.2716 5.9581,7.326 H 13.431 V 8.547 H 5.96 L 9.24526,11.60141 8.50121,12.40079 3.69925,7.9346 8.50121,3.47222 Z"
     fill="#47444f"
     id="path2"
     style="fill:#5a6168;fill-opacity:1;stroke-width:0.0190782" />
</svg>
