<?xml version="1.0" encoding="UTF-8" standalone="no"?>
<!-- Uploaded to: SVG Repo, www.svgrepo.com, Transformed by: SVG Repo Mixer Tools -->

<svg
   xmlns:dc="http://purl.org/dc/elements/1.1/"
   xmlns:cc="http://creativecommons.org/ns#"
   xmlns:rdf="http://www.w3.org/1999/02/22-rdf-syntax-ns#"
   xmlns:svg="http://www.w3.org/2000/svg"
   xmlns="http://www.w3.org/2000/svg"
   xmlns:sodipodi="http://sodipodi.sourceforge.net/DTD/sodipodi-0.dtd"
   xmlns:inkscape="http://www.inkscape.org/namespaces/inkscape"
   height="16.302999"
   width="17.093996"
   version="1.1"
   id="_x32_"
   viewBox="0 0 10.940157 10.43392"
   xml:space="preserve"
   sodipodi:docname="mask.svg"
   style="fill:#000000"
   inkscape:version="0.92.3 (2405546, 2018-03-11)"><metadata
   id="metadata18"><rdf:RDF><cc:Work
       rdf:about=""><dc:format>image/svg+xml</dc:format><dc:type
         rdf:resource="http://purl.org/dc/dcmitype/StillImage" /><dc:title></dc:title></cc:Work></rdf:RDF></metadata><defs
   id="defs16" /><sodipodi:namedview
   pagecolor="#ffffff"
   bordercolor="#666666"
   borderopacity="1"
   objecttolerance="10"
   gridtolerance="10"
   guidetolerance="10"
   inkscape:pageopacity="0"
   inkscape:pageshadow="2"
   inkscape:window-width="716"
   inkscape:window-height="480"
   id="namedview14"
   showgrid="false"
   fit-margin-top="0"
   fit-margin-left="0"
   fit-margin-right="0"
   fit-margin-bottom="0"
   inkscape:zoom="0.295"
   inkscape:cx="400.0003"
   inkscape:cy="345.81699"
   inkscape:window-x="0"
   inkscape:window-y="0"
   inkscape:window-maximized="0"
   inkscape:current-layer="_x32_" />

<g
   id="SVGRepo_bgCarrier"
   style="stroke-width:0"
   transform="translate(1.8997983e-4,-466.88895)" />

<g
   id="SVGRepo_tracerCarrier"
   style="stroke-linecap:round;stroke-linejoin:round"
   transform="translate(1.8997983e-4,-466.88895)" />

<g
   id="SVGRepo_iconCarrier"
   transform="matrix(0.02136753,0,0,-0.02357181,4.0593998e-6,11.251367)"> <style
   type="text/css"
   id="style4"> .st0{fill:#5a6168;} </style> <g
   id="g10"> <path
   class="st0"
   d="m 433.803,171.939 c -2.142,-3.556 -4.324,-7.127 -6.72,-10.714 -11.636,-17.458 -26.107,-35.154 -43.181,-52.22 -22.65,-22.65 -46.637,-40.976 -69.525,-53.804 -11.483,-6.366 -22.728,-11.482 -33.503,-15.015 -10.776,-3.465 -21.237,-5.507 -31.222,-5.507 -6.529,0 -12.903,0.86 -19.033,2.987 -6.06,2.043 -11.882,5.507 -16.598,10.223 L 189.243,72.667 176.156,85.755 C 141.784,77.744 109.296,72.437 81.407,72.406 65.039,72.421 50.17,74.21 37.19,78.834 24.264,83.404 12.988,91.223 5.86,102.836 2.043,108.98 -0.023,115.97 0,122.913 c 0,7.396 2.227,14.502 5.791,20.984 6.298,11.352 16.544,21.352 29.617,30.976 19.639,14.354 45.961,27.726 76.438,39.731 30.461,11.982 65.032,22.52 100.901,30.715 L 218,222.324 v -0.008 C 165.003,210.226 114.834,192.737 78.688,173.774 60.631,164.326 46.106,154.45 36.682,145.279 c -4.716,-4.57 -8.126,-8.941 -10.208,-12.75 -2.104,-3.833 -2.872,-6.967 -2.88,-9.617 0.031,-2.511 0.606,-4.816 2.35,-7.696 3.848,-6.183 9.839,-10.784 19.187,-14.163 9.285,-3.349 21.682,-5.069 36.276,-5.054 21.283,-0.023 47.105,3.618 74.986,9.525 l -13.311,13.31 -46.33,46.322 c 9.516,4.638 19.977,9.125 31.068,13.449 L 206.554,99.87 c 2.888,14.532 9.202,30.124 18.265,46.414 12.626,22.543 30.684,46.252 53.134,68.711 22.458,22.45 46.168,40.5 68.711,53.135 16.406,9.132 32.098,15.484 46.722,18.341 l -152.39,151.994 0.868,-0.944 c -2.435,2.519 -5.661,4.485 -9.986,5.975 -4.247,1.498 -9.601,2.366 -15.891,2.366 -14.078,0.077 -32.558,-4.562 -51.99,-14.078 -19.425,-9.516 -39.871,-23.91 -58.673,-42.627 -18.948,-18.956 -33.58,-39.878 -43.335,-59.779 -9.831,-19.901 -14.623,-38.849 -14.547,-53.166 0,-6.214 0.86,-11.406 2.282,-15.577 1.413,-4.162 3.302,-7.235 5.66,-9.593 L 85.745,220.681 C 74.969,215.965 64.9,211.087 55.775,206.134 l -22.65,22.65 c -6.137,6.137 -10.461,13.61 -13.211,21.706 -2.758,8.104 -3.932,16.675 -3.932,25.723 0,20.837 6.367,43.726 17.773,67.006 11.406,23.28 27.996,46.798 49.394,68.19 21.152,21.16 44.202,37.443 67.006,48.61 22.812,11.168 45.301,17.22 65.83,17.304 9.125,0 17.935,-1.259 26.114,-4.094 8.18,-2.75 15.807,-7.235 22.02,-13.448 L 405.093,319.2 c -0.062,3.334 -0.093,6.114 -0.093,8.395 0,17.835 -1.981,50.523 23.78,50.523 7.027,0 17.834,-4.953 17.834,-29.716 0,-15.231 15.853,-10.038 15.853,-0.998 0,13.879 0,18.18 0,26.744 0,27.742 8.917,37.658 23.779,37.658 14.862,0 25.753,-10.9 25.753,-36.66 0,-25.761 0,-80.247 0,-115.917 10e-4,-31.413 -33.556,-72.804 -78.196,-87.29 z m -122.375,42.059 c -5.638,-4.923 -11.26,-10.146 -16.79,-15.684 -21.037,-21.038 -37.858,-43.227 -49.225,-63.557 -11.429,-20.27 -17.15,-38.841 -17.058,-51.269 0,-2.189 0.192,-4.124 0.484,-5.898 l 7.443,-7.443 c 1.183,-1.098 2.519,-2.042 4.638,-2.75 2.128,-0.791 5.039,-1.259 8.734,-1.259 5.66,0 13.056,1.175 21.467,4.009 12.665,4.094 27.612,11.559 43.18,21.867 15.577,10.376 31.776,23.672 47.351,39.248 11.79,11.752 22.175,23.872 31.03,35.808 -26.944,2.327 -55.248,15.944 -81.254,46.928 z"
   id="path6"
   inkscape:connector-curvature="0"
   style="fill:#5a6168" /> <path
   class="st0"
   d="m 244.806,258.231 c 9.409,0 17.036,-7.626 17.036,-17.036 0,-9.417 -7.627,-17.043 -17.036,-17.043 -9.417,0 -17.044,7.626 -17.044,17.043 0,9.41 7.627,17.036 17.044,17.036 z"
   id="path8"
   inkscape:connector-curvature="0"
   style="fill:#5a6168" /> </g> </g>

</svg>