<?xml version="1.0" encoding="UTF-8" standalone="no"?>
<!-- Uploaded to: SVG Repo, www.svgrepo.com, Generator: SVG Repo Mixer Tools -->

<svg
   width="16.97649"
   height="16.731371"
   viewBox="0 0 0.5092947 0.50194113"
   fill="none"
   version="1.1"
   id="svg4"
   sodipodi:docname="clean.svg"
   inkscape:version="1.3 (0e150ed6c4, 2023-07-21)"
   xmlns:inkscape="http://www.inkscape.org/namespaces/inkscape"
   xmlns:sodipodi="http://sodipodi.sourceforge.net/DTD/sodipodi-0.dtd"
   xmlns="http://www.w3.org/2000/svg"
   xmlns:svg="http://www.w3.org/2000/svg">
  <defs
     id="defs4" />
  <sodipodi:namedview
     id="namedview4"
     pagecolor="#ffffff"
     bordercolor="#000000"
     borderopacity="0.25"
     inkscape:showpageshadow="2"
     inkscape:pageopacity="0.0"
     inkscape:pagecheckerboard="0"
     inkscape:deskcolor="#d1d1d1"
     showguides="false"
     inkscape:zoom="11.610693"
     inkscape:cx="20.885919"
     inkscape:cy="3.8326738"
     inkscape:window-width="1920"
     inkscape:window-height="1017"
     inkscape:window-x="-8"
     inkscape:window-y="-8"
     inkscape:window-maximized="1"
     inkscape:current-layer="svg4" />
  <path
     d="m 0.44624664,0.37769111 0.04417,-0.298402 c 9.562e-4,-0.0065 -0.00308,-0.01268 -0.0098,-0.0151 l -0.1202922,-0.043346 h -0.1448897 l -0.017962,0.03559 -0.1269282,-0.03559 -0.047164,0.04248 c -0.00348,0.0031 -0.00514,0.0076 -0.00449,0.01195 l 0.044763,0.302414 c 0.00434,0.02935 0.023636,0.05518 0.05217,0.06987 l 0.00843,0.0043 c 0.080988,0.04169 0.1804138,0.04169 0.2614019,0 l 0.00843,-0.0043 c 0.028533,-0.01469 0.047827,-0.04052 0.052168,-0.06987 z"
     stroke="#000000"
     stroke-width="0.0375041"
     id="path1"
     style="fill:#000000;fill-opacity:0;stroke:#5a6168;stroke-opacity:1" />
  <path
     d="m 0.36032444,0.01309211 -0.052687,0.11865"
     stroke="#000000"
     stroke-width="0.0375041"
     id="path2"
     style="fill:#000000;fill-opacity:0;stroke:#5a6168;stroke-opacity:1" />
  <path
     d="m 0.17591934,0.11987811 0.021554,-0.07119"
     stroke="#000000"
     stroke-width="0.0375041"
     id="path3"
     style="fill:#000000;fill-opacity:0;stroke:#5a6168;stroke-opacity:1" />
  <path
     d="m 0.01785784,0.08428311 c 0.067741,0.06328 0.4064446,0.06328 0.4741845,0"
     stroke="#000000"
     stroke-width="0.0375041"
     id="path4"
     style="fill:#000000;fill-opacity:0;stroke:#5a6168;stroke-opacity:1" />
</svg>
