<?xml version="1.0" encoding="UTF-8" standalone="no"?>
<!-- Uploaded to: SVG Repo, www.svgrepo.com, Generator: SVG Repo Mixer Tools -->

<svg
   fill="#000000"
   width="17.09601"
   height="17.095999"
   viewBox="0 0 0.68384041 0.68383995"
   id="icon"
   version="1.1"
   sodipodi:docname="drone.svg"
   inkscape:version="1.3 (0e150ed6c4, 2023-07-21)"
   xmlns:inkscape="http://www.inkscape.org/namespaces/inkscape"
   xmlns:sodipodi="http://sodipodi.sourceforge.net/DTD/sodipodi-0.dtd"
   xmlns="http://www.w3.org/2000/svg"
   xmlns:svg="http://www.w3.org/2000/svg">
  <sodipodi:namedview
     id="namedview5"
     pagecolor="#ffffff"
     bordercolor="#000000"
     borderopacity="0.25"
     inkscape:showpageshadow="2"
     inkscape:pageopacity="0.0"
     inkscape:pagecheckerboard="0"
     inkscape:deskcolor="#d1d1d1"
     inkscape:zoom="5.8053467"
     inkscape:cx="52.796158"
     inkscape:cy="27.991438"
     inkscape:window-width="1920"
     inkscape:window-height="1017"
     inkscape:window-x="-8"
     inkscape:window-y="-8"
     inkscape:window-maximized="1"
     inkscape:current-layer="icon" />
  <defs
     id="defs1">
    <style
       id="style1">&#10;      .cls-1 {&#10;        fill: none;&#10;      }&#10;    </style>
  </defs>
  <path
     d="m 0.12211424,0.24422858 a 0.12211423,0.12211429 0 1 1 0.1221143,-0.1221143 h -0.048846 a 0.07326853,0.07326857 0 1 0 -0.073269,0.073269 z"
     id="path1"
     style="fill:#5a6168;fill-opacity:1;stroke-width:0.0244228" />
  <path
     d="m 0.56172544,0.24422858 v -0.0488457 a 0.07326853,0.07326857 0 1 0 -0.0732685,-0.0732686 h -0.048846 a 0.12211423,0.12211429 0 1 1 0.1221145,0.1221143 z"
     id="path2"
     style="fill:#5a6168;fill-opacity:1;stroke-width:0.0244228" />
  <path
     d="m 0.12211424,0.68383998 a 0.12211424,0.1221143 0 0 1 0,-0.2442286 v 0.048846 a 0.07326853,0.07326857 0 1 0 0.073269,0.073269 h 0.048846 a 0.12224855,0.12224861 0 0 1 -0.122115,0.1221136 z"
     id="path3"
     style="fill:#5a6168;fill-opacity:1;stroke-width:0.0244228" />
  <path
     d="m 0.56172544,0.68383998 a 0.12224855,0.12224861 0 0 1 -0.1221142,-0.1221143 h 0.048846 a 0.07326853,0.07326857 0 1 0 0.073269,-0.073269 v -0.048846 a 0.12211459,0.12211465 0 0 1 -8e-7,0.2442293 z"
     id="path4"
     style="fill:#5a6168;fill-opacity:1;stroke-width:0.0244228" />
  <path
     d="m 0.43961124,0.40507508 v -0.1263102 l 0.1393812,-0.1393837 a 0.02442285,0.02442286 0 1 0 -0.0345339,-0.0345339 l -0.1098906,0.1099029 a 0.09702952,0.09702957 0 0 0 -0.1852961,0 l -0.1098907,-0.1099029 a 0.02440819,0.0244082 0 0 0 -0.034534,0 v 0 a 0.02440819,0.0244082 0 0 0 0,0.034534 l 0.1393813,0.1393836 v 0.1263102 l -0.1393812,0.1393837 a 0.02440819,0.0244082 0 0 0 0,0.034534 v 0 a 0.02440819,0.0244082 0 0 0 0.034534,0 l 0.1099029,-0.109903 a 0.09702952,0.09702957 0 0 0 0.1852961,0 l 0.1098906,0.1099029 a 0.02442285,0.02442286 0 0 0 0.034534,-0.034534 z m -0.048846,0.034536 a 0.04884569,0.04884571 0 0 1 -0.097691,0 v -0.1953825 a 0.04884569,0.04884571 0 0 1 0.097691,0 z"
     id="path5"
     style="fill:#5a6168;fill-opacity:1;stroke-width:0.0244228" />
  <rect
     id="_Transparent_Rectangle_"
     data-name="&lt;Transparent Rectangle&gt;"
     class="cls-1"
     width="32"
     height="32"
     x="-2"
     y="-2" />
</svg>
