<?xml version="1.0" encoding="UTF-8" standalone="no"?>
<!-- Created with Inkscape (http://www.inkscape.org/) -->

<svg
   version="1.1"
   id="svg1"
   width="735"
   height="735"
   viewBox="0 0 735 735"
   sodipodi:docname="logo.svg"
   inkscape:version="1.3 (0e150ed6c4, 2023-07-21)"
   xml:space="preserve"
   xmlns:inkscape="http://www.inkscape.org/namespaces/inkscape"
   xmlns:sodipodi="http://sodipodi.sourceforge.net/DTD/sodipodi-0.dtd"
   xmlns="http://www.w3.org/2000/svg"
   xmlns:svg="http://www.w3.org/2000/svg"><defs
     id="defs1"><clipPath
       clipPathUnits="userSpaceOnUse"
       id="clipPath1"><rect
         style="fill:#008080;stroke-width:0.884254"
         id="rect2"
         width="700"
         height="700"
         x="699.87109"
         y="450.33514" /></clipPath><clipPath
       clipPathUnits="userSpaceOnUse"
       id="clipPath1-1"><rect
         style="fill:#008080;stroke-width:0.884254"
         id="rect2-2"
         width="700"
         height="700"
         x="699.87109"
         y="450.33514" /></clipPath></defs><sodipodi:namedview
     id="namedview1"
     pagecolor="#ffffff"
     bordercolor="#000000"
     borderopacity="0.25"
     inkscape:showpageshadow="2"
     inkscape:pageopacity="0.0"
     inkscape:pagecheckerboard="0"
     inkscape:deskcolor="#d1d1d1"
     showgrid="false"
     inkscape:zoom="0.43579454"
     inkscape:cx="695.28177"
     inkscape:cy="875.41253"
     inkscape:window-width="1920"
     inkscape:window-height="1017"
     inkscape:window-x="-8"
     inkscape:window-y="-8"
     inkscape:window-maximized="1"
     inkscape:current-layer="g1" /><g
     inkscape:groupmode="layer"
     inkscape:label="Image"
     id="g1"
     transform="translate(-721.37378,-463.31116)"><circle
       style="fill:#ffffff;fill-opacity:1;stroke-width:4.37794"
       id="path1"
       cx="1088.8738"
       cy="830.81116"
       r="367.5" /><path
       style="fill:#5a6f61;fill-opacity:1;stroke-width:1.65385"
       d="m 1053.232,1156.9985 c -118.29848,-13.8794 -218.42472,-88.862 -265.69477,-198.97319 -3.3165,-7.7255 -8.61599,-22.97006 -11.77662,-33.8766 -33.92057,-117.05187 -2.42789,-239.26416 83.68202,-324.74115 74.26906,-73.72328 175.22797,-106.71118 279.85927,-91.44289 45.1446,6.58768 91.2231,24.27602 130.76,50.19552 19.2792,12.63894 28.0614,19.73412 46.9155,37.90317 65.1727,62.80462 100.3964,145.13519 100.3964,234.66257 0,98.80125 -42.0401,188.59727 -118.2012,252.47297 -20.1353,16.8872 -40.3904,29.8748 -66.3524,42.5449 -35.7832,17.463 -67.3388,26.5421 -108.7497,31.2888 -26.5917,3.048 -44.6431,3.0394 -70.8385,-0.034 z m 6.7917,-174.41577 c -0.979,-85.76287 -2.2492,-172.33652 -2.8228,-192.38605 l -1.0429,-36.4535 5.0618,-8.99063 c 19.2173,-34.13355 37.3171,-93.88189 45.7756,-151.1069 1.4778,-9.99778 3.3505,-22.63947 4.1615,-28.09279 0.811,-5.45332 1.9851,-17.5373 2.6091,-26.85353 l 1.1344,-16.93825 h -6.7325 c -7.5405,0 -6.8914,-1.64195 -9.4723,23.96163 -2.1308,21.13764 -14.3487,77.70779 -20.5221,95.01961 -0.8103,2.27217 -5.8225,17.4489 -11.1384,33.72597 l -9.6652,29.5947 -1.0394,-22.98462 c -0.5716,-12.64158 -1.1347,-47.15268 -1.2513,-76.69137 -0.1165,-29.53879 -0.6954,-59.90885 -1.2864,-67.48932 l -1.0746,-13.78246 -7.6053,1.05777 c -11.7156,1.62943 -36.2982,7.025 -47.33001,10.38835 l -9.93107,3.02787 -1.01368,40.42212 c -0.55759,22.23208 -1.11804,64.96192 -1.24555,94.95504 -0.12741,29.99313 -0.72407,70.81509 -1.32603,90.71541 l -1.09437,36.18239 -5.80562,-11.39469 c -14.57352,-28.60314 -31.64605,-71.12256 -40.98613,-102.0765 l -3.92674,-13.01363 4.08138,-23.67503 c 7.08415,-41.09317 12.83074,-90.04628 10.81646,-92.14155 -1.86219,-1.937 -11.22979,3.21638 -12.23802,6.7326 -0.45892,1.60051 -1.67545,9.97446 -2.70337,18.60893 -1.95775,16.4444 -7.74343,49.5874 -8.84908,50.69131 -0.70085,0.69968 -5.33004,-30.37556 -6.99746,-46.97323 -1.07803,-10.73076 -2.42547,-12.05578 -7.98596,-7.85342 -3.07108,2.32096 -3.05763,2.90514 0.65479,28.45332 2.08464,14.34607 4.40858,29.80186 5.16433,34.34631 3.58092,21.5324 3.51065,24.42105 -1.00493,41.31286 -8.70117,32.54914 -13.93863,50.79876 -14.83581,51.69449 -1.21485,1.21288 -1.21463,1.2195 -2.3803,-75.52036 -0.75002,-49.37648 -1.52776,-66.96145 -2.98291,-67.4442 -1.0826,-0.3591 -10.95167,8.19919 -21.93127,19.01845 l -19.9629,19.67138 -0.0264,32.07393 c -0.0145,17.64068 -0.76407,107.07589 -1.66566,198.74499 l -1.63925,166.67117 10.35541,11.6825 c 12.25743,13.8284 39.02248,37.5326 42.37901,37.5326 2.01729,0 2.18249,-8.183 1.14547,-56.7422 -0.66649,-31.20827 -1.72545,-97.19404 -2.35327,-146.63509 l -1.14148,-89.89291 6.12366,-14.18098 c 5.60003,-12.96841 11.55673,-30.91075 18.89975,-56.92854 l 2.79835,-9.91508 2.05439,8.26264 c 1.12992,4.54435 3.31152,13.59649 4.848,20.11583 1.5365,6.51934 4.64667,17.67378 6.91148,24.78769 2.26483,7.11402 5.26653,16.65268 6.67043,21.19703 4.82565,15.62047 21.08589,52.8984 29.19287,66.92692 l 8.11728,14.04635 -1.78427,84.27836 c -0.98134,46.35299 -1.78355,105.92038 -1.78263,132.37178 v 48.0935 l 13.6554,4.2812 c 17.61901,5.5239 30.68961,8.6947 45.10391,10.942 17.3291,2.7015 19.7342,2.8873 21.2516,1.6412 0.7641,-0.6276 0.5884,-71.3106 -0.3907,-157.07337 z m 92.4788,153.70247 c 5.0294,-0.8879 11.6386,-2.4008 14.6871,-3.362 l 5.5426,-1.7477 -1.0818,-95.2508 c -0.5949,-52.38798 -1.7795,-124.99616 -2.6323,-161.35148 -0.8527,-36.35532 -1.5567,-79.59398 -1.5642,-96.08594 -0.013,-29.56557 0.055,-30.1467 4.8963,-41.50524 13.1036,-30.74352 27.4258,-82.77828 38.0877,-138.37885 2.7886,-14.54213 5.7997,-30.02928 6.6916,-34.41577 2.5497,-12.54066 2.1235,-15.22714 -2.7682,-17.45237 -2.4144,-1.0983 -4.8944,-1.40353 -5.5111,-0.67839 -0.6165,0.72524 -2.0584,6.52392 -3.204,12.88612 -2.6888,14.93199 -5.4606,27.04856 -13.6093,59.49056 -8.0726,32.13861 -9.77,38.20229 -22.8977,81.79954 -2.4606,8.17169 -3.2445,-10.11031 -3.844,-89.63941 -0.327,-43.39387 -1.0212,-79.32408 -1.5427,-79.84472 -1.55,-1.54754 -19.8819,-5.56016 -25.692,-5.62381 l -5.3794,-0.0591 v 306.26635 c 0,168.44651 0.5362,306.80161 1.1916,307.45591 0.6553,0.6542 3.0576,0.722 5.3385,0.1505 2.2808,-0.5716 8.2619,-1.7657 13.2913,-2.6536 z m 119.0622,-52.3645 c 7.4068,-5.286 18.7555,-14.3383 25.2192,-20.116 l 11.7522,-10.505 -1.2275,-116.01698 -1.2275,-116.01692 6.5729,-9.70161 c 16.0656,-23.71312 35.919,-67.73059 48.4314,-107.37837 l 5.2713,-16.70339 -5.3109,-9.39536 c -2.9211,-5.16745 -6.0648,-9.14442 -6.9861,-8.83786 -0.9214,0.30666 -5.1705,10.93567 -9.4426,23.62003 -7.5247,22.34157 -20.8062,56.40913 -32.1063,82.35399 l -5.4988,12.6254 -1.0734,-90.49146 -1.0734,-90.49145 -9.0064,-8.32425 c -13.061,-12.07197 -35.6686,-27.93605 -37.336,-26.19917 -0.7777,0.81018 -1.8536,70.63095 -2.3907,155.1571 -0.5372,84.52615 -1.4236,201.46223 -1.9698,259.85806 -0.8733,93.36554 -0.6958,106.17404 1.4712,106.17404 1.3554,0 8.5244,-4.3248 15.9312,-9.6108 z"
       id="path2" /></g></svg>
