<?xml version="1.0" encoding="UTF-8" standalone="no"?>
<!-- Uploaded to: SVG Repo, www.svgrepo.com, Generator: SVG Repo Mixer Tools -->

<svg
   xmlns:dc="http://purl.org/dc/elements/1.1/"
   xmlns:cc="http://creativecommons.org/ns#"
   xmlns:rdf="http://www.w3.org/1999/02/22-rdf-syntax-ns#"
   xmlns:svg="http://www.w3.org/2000/svg"
   xmlns="http://www.w3.org/2000/svg"
   xmlns:sodipodi="http://sodipodi.sourceforge.net/DTD/sodipodi-0.dtd"
   xmlns:inkscape="http://www.inkscape.org/namespaces/inkscape"
   width="17.196728"
   height="16.388977"
   viewBox="0 0 1.3757382 1.3111182"
   version="1.1"
   id="svg4"
   sodipodi:docname="label.svg"
   style="fill:none"
   inkscape:version="0.92.3 (2405546, 2018-03-11)">
  <metadata
     id="metadata10">
    <rdf:RDF>
      <cc:Work
         rdf:about="">
        <dc:format>image/svg+xml</dc:format>
        <dc:type
           rdf:resource="http://purl.org/dc/dcmitype/StillImage" />
        <dc:title></dc:title>
      </cc:Work>
    </rdf:RDF>
  </metadata>
  <defs
     id="defs8" />
  <sodipodi:namedview
     pagecolor="#ffffff"
     bordercolor="#666666"
     borderopacity="1"
     objecttolerance="10"
     gridtolerance="10"
     guidetolerance="10"
     inkscape:pageopacity="0"
     inkscape:pageshadow="2"
     inkscape:window-width="1920"
     inkscape:window-height="974"
     id="namedview6"
     showgrid="false"
     fit-margin-top="0"
     fit-margin-left="0"
     fit-margin-right="0"
     fit-margin-bottom="0"
     inkscape:zoom="13.350176"
     inkscape:cx="7.4357037"
     inkscape:cy="2.0123532"
     inkscape:window-x="-11"
     inkscape:window-y="-11"
     inkscape:window-maximized="1"
     inkscape:current-layer="svg4" />
  <path
     d="m 1.0615001,0.74793194 c 5.394e-4,-0.0011 0.00129,-0.0021 0.00221,-0.003 6.501e-4,-8.96e-4 0.00139,-0.0017 0.00221,-0.0025 l 0.00332,-0.003 c 0.00138,-0.001 0.00249,-0.0023 0.00415,-0.0033 0.00249,-0.002 0.00553,-0.0043 0.00885,-0.0065 0.00387,-0.0025 0.00802,-0.005 0.012448,-0.0078 0.00802,-0.005 0.016874,-0.01028 0.025726,-0.01505 0.00885,-0.0048 0.017704,-0.01003 0.025726,-0.0143 0.1020745,-0.05543 0.2721987,-0.147981 0.2118945,-0.33835 -5.367e-4,-0.0023 -0.00137,-0.0046 -0.00249,-0.0068 -3.098e-4,-0.0013 -8.714e-4,-0.0026 -0.00166,-0.0038 -3.458e-4,-9.63e-4 -8.105e-4,-0.0019 -0.00138,-0.0028 -0.068291,-0.112556 -0.1717295,-0.204314 -0.2973309,-0.263761 -0.12560141,-0.05945 -0.26776981,-0.08393 -0.40866311,-0.07039 -0.1408932,0.01355 -0.2742373,0.06452 -0.3832938,0.146533 -0.1090592,0.08201 -0.1889714,0.191398 -0.2297121,0.314437 -0.04074,0.12304 -0.040493,0.254249 7.109e-4,0.377161 0.041204,0.122913 0.1215298,0.23205196 0.2308961,0.31372296 0.1093635,0.08167 0.2428985,0.132235 0.3838415,0.145345 0.1409458,0.01311 0.2830202,-0.01182 0.40839751,-0.07165 0.00254,-10e-4 0.00496,-0.0023 0.00719,-0.0038 7.856e-4,-4.39e-4 0.00153,-9.43e-4 0.00221,-0.0015 0.073306,-0.04715 0.1394188,-0.140457 0.084924,-0.24855796 -0.014938,-0.0296 -0.029046,-0.05518 -0.04177,-0.0775 -0.016802,-0.02735 -0.030963,-0.05597 -0.042324,-0.08553 -0.00136,-0.0037 -0.00247,-0.0075 -0.00332,-0.01129 -0.00482,-0.01823 -0.00585,-0.03711 -0.00304,-0.05568 0,-2.51e-4 2.766e-4,-2.51e-4 2.766e-4,-5.02e-4 z m -0.75269551,-0.0928 c 0,-0.02307 0.00754,-0.04562 0.021679,-0.0648 0.014133,-0.01918 0.034221,-0.03413 0.057726,-0.04295 0.023505,-0.0088 0.049369,-0.01114 0.074321,-0.0066 0.024951,0.0045 0.04787,0.01561 0.065861,0.03192 0.017989,0.01631 0.030238,0.03709 0.035201,0.05972 0.00497,0.02262 0.00242,0.04607 -0.00732,0.06738 -0.00973,0.02131 -0.026221,0.03953 -0.047375,0.05234 -0.021153,0.01281 -0.046022,0.01965 -0.071463,0.01965 -0.034105,-2.5e-5 -0.066807,-0.01232 -0.090923,-0.03419 -0.024116,-0.02187 -0.037676,-0.05152 -0.037707,-0.08244 z m 0.2329179,0.34687696 c -0.019408,2.5e-5 -0.038384,-0.0052 -0.054534,-0.01493 -0.016147,-0.0098 -0.028736,-0.02365 -0.036177,-0.0399 -0.00744,-0.01625 -0.00939,-0.03414 -0.00561,-0.0514 0.00378,-0.01726 0.01312,-0.03312 0.026844,-0.04556 0.013723,-0.01244 0.031209,-0.02091 0.050243,-0.02434 0.019035,-0.0034 0.038766,-0.0017 0.056689,0.0051 0.017925,0.0067 0.033239,0.01816 0.044003,0.0328 0.010766,0.01464 0.016498,0.03185 0.01647,0.04944 -4.98e-5,0.02353 -0.010384,0.04609 -0.028739,0.06273 -0.018354,0.01664 -0.043231,0.02601 -0.069187,0.02606 z m 0.1800826,-0.44093296 c -0.035743,-2.5e-5 -0.070675,-0.0097 -0.1003815,-0.02768 -0.029707,-0.01802 -0.052855,-0.04362 -0.06652,-0.07356 -0.013665,-0.02995 -0.017234,-0.06289 -0.010254,-0.09468 0.00698,-0.03178 0.024194,-0.06098 0.049469,-0.08389 0.025273,-0.02291 0.057472,-0.03852 0.092525,-0.04485 0.035054,-0.0063 0.071389,-0.0031 0.1044148,0.0093 0.033026,0.01239 0.061261,0.03338 0.081137,0.06032 0.019873,0.02694 0.030495,0.05861 0.030523,0.09101 -2.77e-5,0.04349 -0.019104,0.08518 -0.053026,0.115924 -0.033925,0.03074 -0.079925,0.04801 -0.1278863,0.04801 z"
     id="path2"
     inkscape:connector-curvature="0"
     style="fill:#999999;stroke-width:0.0263404" />
  <path
     style="opacity:1;fill:#5a6168;fill-opacity:1;stroke:#5a6168;stroke-width:0.01617956;stroke-linecap:square;stroke-linejoin:miter;stroke-miterlimit:4;stroke-dasharray:none;stroke-dashoffset:0;stroke-opacity:1;paint-order:markers fill stroke"
     d="M 0.64219653,1.3011749 C 0.53247269,1.2852261 0.46448237,1.2656741 0.38429725,1.2270101 0.24763325,1.1611117 0.13649061,1.0540445 0.07310533,0.92722854 0.02415101,0.82928454 0.00736309,0.75730774 0.00811325,0.64858054 c 0.0011184,-0.162076 0.0577332,-0.2961768 0.1775468,-0.4205464 0.084855,-0.0880824 0.18718408,-0.15032 0.3069992,-0.1867208 0.0875337,-0.0265936 0.13932576,-0.0338624 0.23642752,-0.0331816 0.13289576,9.28e-4 0.2343256,0.0255416 0.35004543,0.0849336 0.099293,0.0509608 0.195816,0.135328 0.2531477,0.2212656 0.043472,0.065164 0.047155,0.1439712 0.00992,0.2123768 -0.020839,0.0382872 -0.083531,0.0971976 -0.1367895,0.1285368 -0.023032,0.0135528 -0.064797,0.0382184 -0.092812,0.0548112 l -0.050936,0.0301704 5.39e-5,0.0350752 c 5.39e-5,0.0372576 0.00847,0.0578272 0.073049,0.1784904 0.025214,0.0471152 0.02891,0.0587328 0.03084,0.0969528 0.00186,0.036768 -1.6e-4,0.048558 -0.013145,0.076926 -0.01838,0.040147 -0.063781,0.086158 -0.1037424,0.1051352 -0.045735,0.021719 -0.12245615,0.046466 -0.17683671,0.057038 -0.0485448,0.00944 -0.19350528,0.01659 -0.22968792,0.011331 z M 0.57419165,0.99898534 c 0.0127765,-0.003552 0.0308543,-0.0160096 0.0434451,-0.0299456 0.0185105,-0.0204888 0.0215635,-0.0279824 0.0215635,-0.0529272 0,-0.0716816 -0.0767088,-0.1149896 -0.14543448,-0.082108 -0.0332539,0.0159096 -0.0493195,0.0417416 -0.0493195,0.0793016 0,0.0380568 0.0138706,0.0593392 0.0510581,0.0783408 0.0291131,0.014876 0.0459098,0.0164424 0.0786873,0.007336 z m -0.0597119,-0.2487112 c 0.0750944,-0.0521832 0.0677633,-0.156152 -0.0138795,-0.196836 -0.0904448,-0.0450704 -0.1926272,0.010504 -0.19190008,0.1043688 2.56e-4,0.032916 0.010221,0.0554664 0.034838,0.0788312 0.0280742,0.0266464 0.0540979,0.035132 0.10202864,0.0332696 0.0365609,-0.001424 0.0469722,-0.004384 0.0689129,-0.0196336 z m 0.27628008,-0.2006168 c 0.15013976,-0.0561744 0.14933656,-0.2492584 -0.001274,-0.306104 -0.0458522,-0.0173064 -0.11056664,-0.0139304 -0.15352304,0.00801 -0.0843737,0.0430928 -0.1181204,0.1312768 -0.080746,0.2109976 0.0134212,0.028628 0.0251991,0.0425456 0.0553497,0.0654064 0.0454882,0.0344904 0.12152024,0.0436424 0.18019334,0.02169 z"
     id="path823"
     inkscape:connector-curvature="0" />
</svg>
