<?xml version="1.0" encoding="UTF-8" standalone="no"?>
<!-- Uploaded to: SVG Repo, www.svgrepo.com, Generator: SVG Repo Mixer Tools -->

<svg
   width="17.094999"
   height="16.302999"
   viewBox="0 0 0.51284998 0.48908998"
   version="1.1"
   id="svg2"
   sodipodi:docname="ndvi.svg"
   inkscape:version="1.3 (0e150ed6c4, 2023-07-21)"
   xmlns:inkscape="http://www.inkscape.org/namespaces/inkscape"
   xmlns:sodipodi="http://sodipodi.sourceforge.net/DTD/sodipodi-0.dtd"
   xmlns="http://www.w3.org/2000/svg"
   xmlns:svg="http://www.w3.org/2000/svg">
  <defs
     id="defs2" />
  <sodipodi:namedview
     id="namedview2"
     pagecolor="#ffffff"
     bordercolor="#000000"
     borderopacity="0.25"
     inkscape:showpageshadow="2"
     inkscape:pageopacity="0.0"
     inkscape:pagecheckerboard="0"
     inkscape:deskcolor="#d1d1d1"
     showguides="false"
     inkscape:zoom="4.105"
     inkscape:cx="71.498173"
     inkscape:cy="42.996346"
     inkscape:window-width="1920"
     inkscape:window-height="1017"
     inkscape:window-x="-8"
     inkscape:window-y="-8"
     inkscape:window-maximized="1"
     inkscape:current-layer="svg2">
    <sodipodi:guide
       position="-1.2752741,24.744214"
       orientation="1,0"
       id="guide2"
       inkscape:locked="false" />
  </sodipodi:namedview>
  <path
     d="M -3,-1 H 21 V 23 H -3 Z"
     fill="none"
     id="path1" />
  <path
     d="m 0.256425,0.48909 c 0.1416036,0 0.256425,-0.093859 0.256425,-0.20961 -0.1416036,0 -0.256425,0.093859 -0.256425,0.20961 z M 0.0740783,0.2154325 c 0,0.03214 0.031911,0.058225 0.071229,0.058225 0.015101,0 0.028777,-0.00373 0.040458,-0.010248 l -5.699e-4,0.00443 c 0,0.03214 0.031911,0.058225 0.071229,0.058225 0.039318,0 0.071229,-0.026085 0.071229,-0.058225 l -5.699e-4,-0.00443 c 0.011397,0.00652 0.025358,0.010248 0.040458,0.010248 0.039319,0 0.071229,-0.026085 0.071229,-0.058225 0,-0.02329 -0.01681,-0.043086 -0.040743,-0.052402 0.023933,-0.00932 0.040743,-0.029113 0.040743,-0.052402 0,-0.03214 -0.031911,-0.058225 -0.071229,-0.058225 -0.015101,0 -0.028777,0.00373 -0.040458,0.010248 l 5.707e-4,-0.00443 C 0.3276542,0.0260848 0.2957432,0 0.2564252,0 0.2171062,0 0.1851962,0.0260848 0.1851962,0.058225 l 5.699e-4,0.00443 c -0.011397,-0.00652 -0.025358,-0.010248 -0.040459,-0.010248 -0.039318,0 -0.071229,0.026085 -0.071229,0.058225 0,0.02329 0.01681,0.043086 0.040743,0.052402 -0.023933,0.00932 -0.040743,0.029113 -0.040743,0.052402 z M 0.256425,0.104805 c 0.039318,0 0.071229,0.026085 0.071229,0.058225 0,0.03214 -0.031911,0.058225 -0.071229,0.058225 -0.039319,0 -0.071229,-0.026085 -0.071229,-0.058225 0,-0.03214 0.031911,-0.058225 0.071229,-0.058225 z M 0,0.27948 C 0,0.3952313 0.1148214,0.48909 0.256425,0.48909 0.256425,0.3733387 0.1416036,0.27948 0,0.27948 Z"
     id="path2"
     style="fill:#5a6168;fill-opacity:1;stroke-width:0.0257599" />
</svg>
