<?xml version="1.0" encoding="UTF-8" standalone="no"?>
<svg
   class="svg-icon"
   style="overflow:hidden;fill:currentColor"
   viewBox="0 0 17.094 17.094"
   version="1.1"
   id="svg2"
   sodipodi:docname="point-selection.svg"
   width="17.094"
   height="17.094"
   xmlns:inkscape="http://www.inkscape.org/namespaces/inkscape"
   xmlns:sodipodi="http://sodipodi.sourceforge.net/DTD/sodipodi-0.dtd"
   xmlns="http://www.w3.org/2000/svg"
   xmlns:svg="http://www.w3.org/2000/svg">
  <defs
     id="defs2" />
  <sodipodi:namedview
     id="namedview2"
     pagecolor="#ffffff"
     bordercolor="#000000"
     borderopacity="0.25"
     inkscape:showpageshadow="2"
     inkscape:pageopacity="0.0"
     inkscape:pagecheckerboard="0"
     inkscape:deskcolor="#d1d1d1" />
  <path
     d="M 8.547,0 C 3.82649,0 0,3.82649 0,8.547 c 0,4.72051 3.82649,8.547 8.547,8.547 4.72051,0 8.547,-3.82649 8.547,-8.547 C 17.094,3.82649 13.26751,0 8.547,0 Z m 0,16.2393 c -4.24871,0 -7.6923,-3.44359 -7.6923,-7.6923 0,-4.24871 3.44359,-7.6923 7.6923,-7.6923 4.24871,0 7.6923,3.44359 7.6923,7.6923 0,4.24871 -3.44359,7.6923 -7.6923,7.6923 z"
     id="path1"
     style="fill:#5a6168;fill-opacity:1;stroke-width:0.0267094" />
  <path
     d="m 8.547,8.547 m -5.55555,0 a 5.55555,5.55555 0 1 0 11.1111,0 5.55555,5.55555 0 1 0 -11.1111,0 z"
     id="path2"
     style="fill:#5a6168;fill-opacity:1;stroke-width:0.0267094" />
</svg>
