<?xml version="1.0" encoding="UTF-8" standalone="no"?>
<!-- Uploaded to: SVG Repo, www.svgrepo.com, Generator: SVG Repo Mixer Tools -->

<svg
   xmlns:dc="http://purl.org/dc/elements/1.1/"
   xmlns:cc="http://creativecommons.org/ns#"
   xmlns:rdf="http://www.w3.org/1999/02/22-rdf-syntax-ns#"
   xmlns:svg="http://www.w3.org/2000/svg"
   xmlns="http://www.w3.org/2000/svg"
   xmlns:sodipodi="http://sodipodi.sourceforge.net/DTD/sodipodi-0.dtd"
   xmlns:inkscape="http://www.inkscape.org/namespaces/inkscape"
   height="16.346626"
   width="17.162209"
   version="1.1"
   id="_x32_"
   viewBox="0 0 10.983813 10.461841"
   xml:space="preserve"
   sodipodi:docname="raw.svg"
   inkscape:version="0.92.3 (2405546, 2018-03-11)"><metadata
   id="metadata15"><rdf:RDF><cc:Work
       rdf:about=""><dc:format>image/svg+xml</dc:format><dc:type
         rdf:resource="http://purl.org/dc/dcmitype/StillImage" /><dc:title></dc:title></cc:Work></rdf:RDF></metadata><defs
   id="defs13" /><sodipodi:namedview
   pagecolor="#ffffff"
   bordercolor="#666666"
   borderopacity="1"
   objecttolerance="10"
   gridtolerance="10"
   guidetolerance="10"
   inkscape:pageopacity="0"
   inkscape:pageshadow="2"
   inkscape:window-width="1920"
   inkscape:window-height="974"
   id="namedview11"
   showgrid="false"
   inkscape:zoom="8"
   inkscape:cx="20.702231"
   inkscape:cy="2.3310259"
   inkscape:window-x="-11"
   inkscape:window-y="-11"
   inkscape:window-maximized="1"
   inkscape:current-layer="_x32_"
   inkscape:pagecheckerboard="false"
   fit-margin-top="0"
   fit-margin-left="0"
   fit-margin-right="0"
   fit-margin-bottom="0" />
<style
   type="text/css"
   id="style2">
	.st0{fill:#000000;}
</style>
<g
   id="g8"
   transform="matrix(0.0255659,0,0,0.02037875,-1.0532059,0.02396675)">
	<path
   class="st0"
   d="M 200,474.296 C 200,495.123 216.884,512 237.704,512 h 2.517 c 20.82,0 37.704,-16.877 37.704,-37.704 V 338.517 H 200 Z"
   id="path4"
   inkscape:connector-curvature="0"
   style="fill:#000000" />
	<path
   class="st0"
   d="m 440.784,65.911 -0.028,-0.079 H 427.558 V 43.58 C 427.544,19.508 408.05,0.015 383.978,0 H 85.618 C 61.547,0.015 42.053,19.508 42.039,43.58 v 78.332 c 0.014,24.072 19.508,43.565 43.579,43.579 h 298.36 c 24.072,-0.014 43.565,-19.507 43.579,-43.579 V 97.455 h 6.988 c 3.429,0 6.21,2.78 6.21,6.21 v 7.807 46.089 c 0,8.564 -5.22,16.292 -13.184,19.494 l -0.449,0.178 -171.187,82.282 0.021,0.036 c -18.516,7.864 -30.624,25.989 -30.624,46.175 v 15.75 h 29.205 v -15.75 c 0,-8.585 5.212,-16.3 13.176,-19.501 l 0.456,-0.185 171.173,-82.275 -0.021,-0.036 c 18.531,-7.864 30.638,-25.989 30.638,-46.167 V 96.414 c -0.005,-20.221 -9.98,-30.489 -29.175,-30.503 z m -42.432,56 c -0.006,4.007 -1.582,7.515 -4.214,10.16 -2.645,2.63 -6.146,4.207 -10.16,4.214 H 85.618 c -4.014,-0.007 -7.516,-1.583 -10.161,-4.214 -2.63,-2.645 -4.206,-6.154 -4.214,-10.16 V 43.58 c 0.008,-4.014 1.583,-7.515 4.214,-10.168 2.645,-2.624 6.146,-4.2 10.161,-4.207 h 298.36 c 4.014,0.008 7.515,1.583 10.16,4.207 2.632,2.652 4.207,6.154 4.214,10.168 z"
   id="path6"
   inkscape:connector-curvature="0"
   style="fill:#000000" />
</g>
<path
   style="opacity:1;fill:#5a6168;fill-opacity:1;stroke:#ff0000;stroke-width:0.03818377;stroke-linecap:square;stroke-linejoin:miter;stroke-miterlimit:4;stroke-dasharray:none;stroke-dashoffset:0;stroke-opacity:1;paint-order:markers fill stroke"
   d="m 4.7211816,6.3216295 c 0.00531,-0.2408832 0.0073,-0.2554112 0.049037,-0.3597888 0.1110425,-0.2777152 0.3451117,-0.492 0.6837299,-0.6259456 C 5.5779521,5.2868711 8.0436808,4.3410407 9.3701729,3.8337127 9.684651,3.7134375 9.9606203,3.6053735 9.9834376,3.5935783 c 0.064284,-0.03328 0.1646744,-0.1319424 0.1985414,-0.1952 0.02986,-0.055744 0.03073,-0.07257 0.03474,-0.6722368 0.0032,-0.4816704 1.54e-4,-0.6224448 -0.01414,-0.6491904 -0.02685,-0.05024 -0.09465,-0.072205 -0.2228606,-0.072205 H 9.8661217 v 0.3096384 c 0,0.2695488 -0.00365,0.3212672 -0.028134,0.3995136 -0.093167,0.2976 -0.3644588,0.5305536 -0.7426092,0.6376576 L 8.9822408,3.3836199 5.022443,3.3880999 C 2.1620699,3.3912999 1.0312328,3.3878951 0.94950798,3.3765159 0.88728078,3.3678119 0.77909518,3.3417639 0.70909134,3.3185959 0.3985211,3.2157671 0.1502491,2.9888679 0.06219214,2.7273767 c -0.03072,-0.091226 -0.0313856,-0.1088448 -0.0358592,-0.9544896 -0.002944,-0.557664 7.04e-4,-0.89686395 0.0104128,-0.96167035 0.023936,-0.1600064 0.10873024,-0.3177088 0.24014016,-0.446592 0.19891712,-0.195104 0.41744512,-0.2919104 0.736263,-0.3261632 0.08902,-0.009536 1.4513268,-0.013056 4.0375796,-0.010304 l 3.9032294,0.00384 0.1406797,0.038784 c 0.3521011,0.0970688 0.6090349,0.3014144 0.7247513,0.5763968 0.037498,0.0891072 0.038842,0.1014912 0.043859,0.40447355 l 0.00518,0.312544 0.2710861,0.0087 c 0.291044,0.00934 0.401268,0.027968 0.519351,0.087834 0.147426,0.074707 0.244619,0.2035328 0.280292,0.3715328 0.02511,0.118272 0.02126,1.4531776 -0.0045,1.574944 -0.03611,0.1703936 -0.131714,0.3325184 -0.278466,0.4722432 -0.100051,0.095258 -0.181929,0.1543232 -0.288576,0.2081728 -0.08419,0.042496 -0.05919,0.032832 -2.6227546,1.014112 C 6.6442088,5.5230247 5.7182529,5.8805095 5.68714,5.8961575 5.6052629,5.9373095 5.5260763,6.0178023 5.4875976,6.0989543 5.4572296,6.1630119 5.4540552,6.1886375 5.4539336,6.3711911 L 5.4537953,6.5727207 H 5.0847265 4.7156571 Z M 8.9533397,2.7613479 c 0.047642,-0.024 0.1029363,-0.066029 0.1272793,-0.096762 L 9.123659,2.6102499 9.127499,1.7226595 9.131339,0.83506915 9.085067,0.76715875 C 9.054507,0.72229475 9.014792,0.68680035 8.9680872,0.66256995 l -0.07071,-0.036672 -3.9241031,-0.00384 c -3.5849107,-0.0032 -3.9300627,-0.00192 -3.99305276,0.019264 -0.0891456,0.029632 -0.18531072,0.121344 -0.20594496,0.1964544 -0.010464,0.03808 -0.0155648,0.32584955 -0.0156224,0.88079995 -6.848e-5,0.7120768 0.00288,0.83136 0.0218112,0.8766208 0.0404416,0.096787 0.11998848,0.162272 0.23472962,0.1932416 0.065277,0.0176 0.6121651,0.020032 3.9648096,0.017728 l 3.8890873,-0.00256 z"
   id="path871"
   inkscape:connector-curvature="0" /><path
   style="opacity:1;fill:#5a6168;fill-opacity:1;stroke:#5a6168;stroke-width:0.03818377;stroke-linecap:square;stroke-linejoin:miter;stroke-miterlimit:4;stroke-dasharray:none;stroke-dashoffset:0;stroke-opacity:1;paint-order:markers fill stroke"
   d="M 4.7870632,10.42705 C 4.5192577,10.37137 4.2549153,10.194327 4.1496289,10.000158 4.0654478,9.8449127 4.0678465,9.8934631 4.0678465,8.3445223 V 6.9262055 H 5.057796 6.0477454 v 1.4112448 c 0,1.5525632 0.00326,1.4900928 -0.087344,1.6601344 -0.064881,0.1217283 -0.2225331,0.2653183 -0.3679597,0.3351293 -0.064599,0.03104 -0.1556364,0.06698 -0.2023059,0.07991 -0.1164934,0.03232 -0.47584,0.0409 -0.6030726,0.0144 z"
   id="path873"
   inkscape:connector-curvature="0" /><path
   style="opacity:1;fill:#5a6168;fill-opacity:1;stroke:#5a6168;stroke-width:0.027;stroke-linecap:square;stroke-linejoin:miter;stroke-miterlimit:4;stroke-dasharray:none;stroke-dashoffset:0;stroke-opacity:1;paint-order:markers fill stroke"
   d="M 4.7059131,6.3470951 C 4.7097531,6.2169767 4.7176571,6.0876007 4.7234555,6.0595943 4.7368571,5.9948711 4.8071649,5.8444647 4.861236,5.7648423 4.921652,5.6758695 5.0134062,5.5814823 5.1098062,5.5091367 5.2788545,5.3822631 5.0647822,5.4679847 8.5020206,4.1505127 10.162072,3.5142183 10.011415,3.5779111 10.106436,3.4722215 c 0.06858,-0.076269 0.0769,-0.098138 0.08723,-0.2291136 0.01131,-0.1434304 0.0067,-1.137504 -0.0054,-1.1622912 -0.01811,-0.037184 -0.06608,-0.0512 -0.1887881,-0.055296 l -0.1175001,-0.00384 -1.779e-4,0.2485568 c -9.99e-5,0.136704 -0.00429,0.2875008 -0.00929,0.335104 -0.0232,0.2204096 -0.1768237,0.445216 -0.4065991,0.5949952 -0.104647,0.068211 -0.2010656,0.1123008 -0.3511597,0.1605696 l -0.117776,0.037888 H 4.9820014 c -3.8803539,0 -4.01785022,-6.272e-4 -4.09999998,-0.018624 C 0.46683534,3.2891239 0.1612859,3.0518311 0.05002382,2.7340391 0.01807502,2.6427751 0.01058062,2.3970407 0.01442062,1.5664231 0.01838862,0.70779275 0.01452494,0.75577995 0.0925275,0.59643275 c 0.0994656,-0.2031936 0.30677888,-0.389312 0.53675392,-0.4818816 0.0797248,-0.032064 0.15588672,-0.053632 0.27272192,-0.0772416 0.0792794,-0.016 0.35285756,-0.017408 4.06500036,-0.020608 l 3.98,-0.0032 0.14,0.040704 c 0.3749126,0.1089088 0.6255526,0.3076672 0.7465536,0.5920192 0.028416,0.0667712 0.031462,0.0852672 0.039149,0.2376704 0.00461,0.0908992 0.00856,0.23319035 0.00882,0.31620475 l 4.793e-4,0.1509376 0.2152344,0.00685 c 0.429245,0.013696 0.55678,0.048704 0.702506,0.1926272 0.07907,0.078106 0.129184,0.1684032 0.151855,0.2736256 0.03141,0.1457984 0.02067,1.5060224 -0.01283,1.6249984 -0.06863,0.2437184 -0.259995,0.475168 -0.516685,0.6249152 -0.07736,0.04512 -0.214917,0.099942 -1.1750768,0.468192 -3.7964781,1.4560768 -3.5549753,1.3619264 -3.6207513,1.411584 -0.056851,0.042944 -0.1279405,0.1409984 -0.1439277,0.1985536 -0.00563,0.020224 -0.010234,0.125632 -0.010266,0.2342592 l -5.63e-5,0.1974976 H 5.0854504 4.6988955 Z m 0.7361088,0.023424 c 0,-0.1356032 0.00397,-0.1966144 0.015354,-0.2348928 0.020845,-0.070195 0.096709,-0.1670784 0.1696442,-0.2166528 0.067281,-0.04576 0.079471,-0.05056 1.83,-0.7220672 C 10.526037,4.0195879 10.297425,4.1083815 10.392019,4.0569383 10.578222,3.9556711 10.7652,3.7664039 10.85459,3.5887015 10.914,3.4706023 10.92262,3.4194151 10.93376,3.1187047 10.94869,2.7156199 10.93846,1.8873575 10.91765,1.8104167 10.862168,1.6056103 10.707224,1.4637735 10.49071,1.4195943 10.401553,1.4014183 10.148804,1.3838183 9.9761198,1.3837543 L 9.8552187,1.3837159 9.8484283,1.0800935 C 9.8407867,0.73843595 9.8355771,0.70530315 9.7701134,0.58244235 9.6852693,0.42321035 9.5283515,0.27555595 9.3493845,0.18656395 9.2476373,0.13593995 9.1914005,0.11486475 9.0495061,0.07405195 l -0.1075117,-0.030912 -3.977488,0.0032 c -3.6879322,0.0032 -3.98367618,0.00448 -4.06248834,0.020352 -0.26536704,0.0528 -0.45030144,0.1466816 -0.61718464,0.3132032 -0.0773907,0.0772288 -0.14503616,0.1749376 -0.18250752,0.2636288 -0.056256,0.1331584 -0.0538496,0.0944768 -0.0577344,0.92778875 -0.001984,0.4250368 5.3696e-4,0.8480384 0.005568,0.94 0.0080256,0.1459968 0.0126912,0.176096 0.0367744,0.2372096 0.0399936,0.1014912 0.1223168,0.2202112 0.21187392,0.3055424 0.15867392,0.1511936 0.32432512,0.2345216 0.58818048,0.2958592 0.077287,0.017984 0.2161613,0.018624 4.0949997,0.018624 h 4.0150003 l 0.1049997,-0.03296 c 0.3740051,-0.117376 0.6281504,-0.3384704 0.7207763,-0.6270464 0.020909,-0.065139 0.022778,-0.092429 0.02688,-0.3934528 l 0.00442,-0.323456 0.1314662,0.00384 c 0.1029225,0.00256 0.1397705,0.00774 0.1697155,0.022464 0.07476,0.036672 0.0714,0.01088 0.07477,0.5735168 0.0017,0.2770048 -0.0013,0.5665088 -0.0067,0.6433472 -0.0091,0.1310464 -0.01164,0.142688 -0.04068,0.1879488 -0.04835,0.075347 -0.141728,0.1581888 -0.2165489,0.1921152 -0.080405,0.03648 -0.3764314,0.1510464 -1.689072,0.6538368 C 6.00394,5.1393639 5.4124731,5.3686247 5.3219937,5.4141031 5.0859592,5.5327463 4.9117045,5.7012519 4.8124053,5.9068775 4.7520661,6.0318311 4.7439003,6.0769127 4.7360046,6.3287783 l -0.00705,0.2249408 h 0.3565203 0.3565204 z"
   id="path877"
   inkscape:connector-curvature="0" /><path
   style="opacity:1;fill:#5a6168;fill-opacity:1;stroke:#5a6168;stroke-width:0.027;stroke-linecap:square;stroke-linejoin:miter;stroke-miterlimit:4;stroke-dasharray:none;stroke-dashoffset:0;stroke-opacity:1;paint-order:markers fill stroke"
   d="M 1.0693416,2.8076263 C 0.93945038,2.7964263 0.83175822,2.7289511 0.77795662,2.6250151 0.75678542,2.5841191 0.75531982,2.5652391 0.74676302,2.2218599 c -0.0123904,-0.4968512 0.002688,-1.36590715 0.024576,-1.41475835 0.0237568,-0.053056 0.0793318,-0.1111488 0.14294976,-0.149376 0.0559616,-0.0336 0.0603968,-0.03456 0.20363132,-0.041792 0.080533,-0.00384 1.8621767,-0.007744 3.9592084,-0.008128 l 3.8127852,-6.4e-4 0.058227,0.029376 c 0.076697,0.03872 0.1141645,0.0713408 0.1607834,0.1399872 l 0.038502,0.056704 -0.00557,0.89250555 -0.00557,0.892512 -0.03152,0.039808 c -0.035104,0.044352 -0.1060986,0.09831 -0.177552,0.134912 l -0.047168,0.024192 -3.867833,-0.00128 c -2.1273075,-6.4e-4 -3.901582,-0.00448 -3.942832,-0.00794 z m 7.8719449,-0.057472 c 0.038566,-0.020096 0.088376,-0.0576 0.1175002,-0.088384 l 0.050554,-0.05344 V 2.1293671 c 0,-0.263424 0.00294,-0.6608192 0.00653,-0.8830976 l 0.00653,-0.40414075 -0.04903,-0.0640128 c -0.03383,-0.04416 -0.069096,-0.0760192 -0.1137274,-0.1027264 l -0.064692,-0.03872 -3.9403072,0.00256 -3.9403072,0.00256 -0.0482944,0.022272 c -0.0691059,0.031872 -0.12281792,0.077536 -0.15433728,0.1311552 l -0.0273664,0.046528 -0.009018,0.48297595 c -0.00544,0.2920576 -0.005376,0.6339904 2.4256e-4,0.8650048 0.008768,0.36176 0.0104,0.3841728 0.0307136,0.4225472 0.0314688,0.059456 0.0796787,0.1029888 0.15305984,0.1382464 l 0.0649997,0.031232 0.8950003,0.00512 c 0.4922496,0.00256 2.2584998,0.0032 3.9249997,0.00128 l 3.03,-0.0032 z"
   id="path879"
   inkscape:connector-curvature="0" /></svg>