<?xml version="1.0" encoding="UTF-8" standalone="no"?>
<!-- Uploaded to: SVG Repo, www.svgrepo.com, Generator: SVG Repo Mixer Tools -->

<svg
   fill="#000000"
   height="17.093975"
   width="17.094"
   version="1.1"
   id="Capa_1"
   viewBox="0 0 4.5804868 4.5804802"
   xml:space="preserve"
   sodipodi:docname="rotate-option-svgrepo-com.svg"
   inkscape:version="1.3 (0e150ed6c4, 2023-07-21)"
   xmlns:inkscape="http://www.inkscape.org/namespaces/inkscape"
   xmlns:sodipodi="http://sodipodi.sourceforge.net/DTD/sodipodi-0.dtd"
   xmlns="http://www.w3.org/2000/svg"
   xmlns:svg="http://www.w3.org/2000/svg"
   xmlns:rdf="http://www.w3.org/1999/02/22-rdf-syntax-ns#"
   xmlns:cc="http://creativecommons.org/ns#"
   xmlns:dc="http://purl.org/dc/elements/1.1/"><title
   id="title1">line-thickness</title><defs
   id="defs1" /><sodipodi:namedview
   id="namedview1"
   pagecolor="#ffffff"
   bordercolor="#000000"
   borderopacity="0.25"
   inkscape:showpageshadow="2"
   inkscape:pageopacity="0.0"
   inkscape:pagecheckerboard="0"
   inkscape:deskcolor="#d1d1d1"
   inkscape:zoom="5.5649304"
   inkscape:cx="-47.439947"
   inkscape:cy="3.3243902"
   inkscape:window-width="1920"
   inkscape:window-height="1001"
   inkscape:window-x="-9"
   inkscape:window-y="-9"
   inkscape:window-maximized="1"
   inkscape:current-layer="Capa_1" />&#10;<path
   d="m 4.5804869,2.03461 c 0,0.98957 -0.7994209,1.81628 -1.8546359,1.99752 V 4.58048 L 1.047975,3.72578 2.725851,2.87108 V 3.37309 C 3.379492,3.20493 3.858923,2.66873 3.858923,2.03459 3.858923,1.26617 3.155206,0.641 2.290243,0.641 c -0.864962,0 -1.568679,0.62517 -1.568679,1.39359 0,0.20697 0.04974,0.406 0.147872,0.59162 L 0.216325,2.89873 C 0.072782,2.62722 0,2.33649 0,2.03461 2.4e-5,0.91273 1.027435,0 2.290267,0 3.5531,0 4.5804869,0.91273 4.5804869,2.03461 Z"
   id="path1"
   style="fill:#5a6168;fill-opacity:1;stroke-width:0.02267" />&#10;<metadata
   id="metadata1"><rdf:RDF><cc:Work
       rdf:about=""><dc:title>line-thickness</dc:title></cc:Work></rdf:RDF></metadata></svg>
