<?xml version="1.0" encoding="UTF-8" standalone="no"?>
<svg
   id="Layer_1"
   data-name="Layer 1"
   viewBox="0 0 14.936834 17.345095"
   version="1.1"
   sodipodi:docname="satelite.svg"
   width="14.936834"
   height="17.345095"
   inkscape:version="1.3 (0e150ed6c4, 2023-07-21)"
   xmlns:inkscape="http://www.inkscape.org/namespaces/inkscape"
   xmlns:sodipodi="http://sodipodi.sourceforge.net/DTD/sodipodi-0.dtd"
   xmlns="http://www.w3.org/2000/svg"
   xmlns:svg="http://www.w3.org/2000/svg"
   xmlns:rdf="http://www.w3.org/1999/02/22-rdf-syntax-ns#"
   xmlns:cc="http://creativecommons.org/ns#"
   xmlns:dc="http://purl.org/dc/elements/1.1/">
  <sodipodi:namedview
     id="namedview1"
     pagecolor="#ffffff"
     bordercolor="#000000"
     borderopacity="0.25"
     inkscape:showpageshadow="2"
     inkscape:pageopacity="0.0"
     inkscape:pagecheckerboard="0"
     inkscape:deskcolor="#d1d1d1"
     inkscape:zoom="12.828125"
     inkscape:cx="-12.199756"
     inkscape:cy="5.6516443"
     inkscape:window-width="1920"
     inkscape:window-height="1017"
     inkscape:window-x="-8"
     inkscape:window-y="-8"
     inkscape:window-maximized="1"
     inkscape:current-layer="Layer_1" />
  <defs
     id="defs1">
    <style
       id="style1">.cls-1{fill:#141f38;}</style>
  </defs>
  <title
     id="title1">satellite-antenna-glyph</title>
  <path
     style="fill:#5a6168;fill-opacity:1;stroke-width:0.127576"
     d="m 2.7246654,17.290319 c -0.33893,-0.0731 -0.6939,-0.26447 -0.93028,-0.5016 -0.34627,-0.34741 -0.47677,-0.74097 -0.37784,-1.13936 0.0333,-0.13421 0.38401,-0.88378 0.94404,-2.01786 l 0.89099,-1.80435 -0.16147,-0.21335 c -0.42791,-0.56535 -0.37918,-1.23395 0.12874,-1.7664698 0.10974,-0.115 0.17931,-0.21367 0.16152,-0.229 -0.0172,-0.0148 -0.19073,-0.15705 -0.38567,-0.31609 -0.97105,-0.79228 -1.7708,-1.77913 -2.27839002,-2.81141 -0.79024,-1.60711 -0.93017,-3.36307 -0.40217,-5.04632 0.17423,-0.55539996 0.31601,-0.84475996 0.50059,-1.02160996 0.48466002,-0.46439 1.34305002,-0.56029 1.95159002,-0.21803 0.10642,0.0599 0.9672,0.72639 1.91279,1.48117996 l 1.71928,1.3723 1.91833,-0.51337 1.9183496,-0.51339 0.022,-0.24416 c 0.0501,-0.55727 0.4402,-0.98200996 1.10881,-1.20735996 0.2309,-0.0778 0.84434,-0.0872 1.09703,-0.0168 0.45699,0.12738 0.87726,0.44869996 1.0518,0.80415996 0.0824,0.16795 0.0959,0.23525 0.0959,0.48211 0,0.26267 -0.01,0.30493 -0.11548,0.5 -0.14505,0.26752 -0.3886,0.48962 -0.69964,0.63806 -0.27085,0.12924 -0.71266,0.22048 -0.93198,0.19247 l -0.14311,-0.0182 -0.63905,1.54128 c -0.44539,1.07419 -0.62953,1.55507 -0.60759,1.58679 0.0173,0.025 0.95045,0.77553 2.07363,1.66776 1.22145,0.97029 2.09319,1.68659 2.16914,1.78234 0.3376,0.4256398 0.2832,0.9725198 -0.1357,1.3643498 -0.22146,0.20717 -0.37732,0.28232 -0.82917,0.39981 -1.78389,0.46389 -3.8423296,0.51778 -5.6936296,0.14907 -0.35607,-0.0709 -1.17784,-0.28045 -1.33226,-0.33972 -0.0263,-0.01 -0.055,0.0122 -0.0679,0.0532 -0.0124,0.0388 -0.0745,0.1388 -0.13807,0.22214 -0.0636,0.0833 -0.11561,0.16342 -0.11561,0.17797 0,0.0146 0.65334,0.7853 1.45188,1.71276 1.66134,1.92956 1.67041,1.94267 1.67041,2.41202 0,0.25666 -0.0123,0.31264 -0.10888,0.50959 -0.21136,0.42936 -0.6925,0.7744 -1.24222,0.89085 -0.33789,0.0715 -5.1174,0.0702 -5.4504,-0.001 z M 10.521525,4.4299792 c 0.44631,-1.07167 0.57481,-1.41196 0.54461,-1.44216 -0.0303,-0.0302 -0.0548,-0.03 -0.10448,10e-4 -0.15939,0.0996 -2.2800596,1.80944 -2.2864596,1.84358 -0.007,0.0405 1.16302,0.99387 1.22539,0.99784 0.0202,10e-4 0.2996596,-0.62885 0.6209496,-1.4003 z m -1.1360896,-0.91123 c 0.7494896,-0.5963 1.1352096,-0.92406 1.1280796,-0.95855 -0.006,-0.031 -0.0379,-0.0479 -0.0772,-0.0415 -0.10802,0.0178 -3.4741596,0.9225 -3.4901196,0.938 -0.0206,0.02 -0.016,0.024 0.6222,0.53467 0.32299,0.25848 0.59662,0.45362 0.62593,0.44637 0.0287,-0.007 0.56464,-0.42063 1.19105,-0.919 z"
     id="path2" />
  <metadata
     id="metadata5">
    <rdf:RDF>
      <cc:Work
         rdf:about="">
        <dc:title>satellite-antenna-glyph</dc:title>
      </cc:Work>
    </rdf:RDF>
  </metadata>
</svg>
