<?xml version="1.0" encoding="UTF-8" standalone="no"?>
<svg
   enable-background="new 0 0 63 47"
   height="17.094999"
   id="Layer_1"
   version="1.1"
   viewBox="0 0 17.094999 17.094999"
   width="17.094999"
   xml:space="preserve"
   sodipodi:docname="383213_statistics_icon.svg"
   xmlns:inkscape="http://www.inkscape.org/namespaces/inkscape"
   xmlns:sodipodi="http://sodipodi.sourceforge.net/DTD/sodipodi-0.dtd"
   xmlns="http://www.w3.org/2000/svg"
   xmlns:svg="http://www.w3.org/2000/svg"><defs
     id="defs4" /><sodipodi:namedview
     id="namedview4"
     pagecolor="#ffffff"
     bordercolor="#000000"
     borderopacity="0.25"
     inkscape:showpageshadow="2"
     inkscape:pageopacity="0.0"
     inkscape:pagecheckerboard="0"
     inkscape:deskcolor="#d1d1d1" /><g
     id="g4"
     transform="matrix(0.27134921,0,0,0.38852273,0,-0.38852273)"
     style="fill:#5a6168;fill-opacity:1"><path
       d="M 10,1 H 2 C 0.896,1 0,1.896 0,3 v 40 c 0,1.104 0.896,2 2,2 h 8 c 1.104,0 2,-0.896 2,-2 V 3 C 12,1.896 11.104,1 10,1 Z"
       fill="#231f20"
       id="path1"
       style="fill:#5a6168;fill-opacity:1" /><path
       d="m 27.833,15 h -8 C 18.729,15 17,15.11 17,15.864 V 43.137 C 17,43.89 18.729,45 19.833,45 h 8 C 28.938,45 29,43.89 29,43.137 V 15.864 C 29,15.11 28.938,15 27.833,15 Z"
       fill="#231f20"
       id="path2"
       style="fill:#5a6168;fill-opacity:1" /><path
       d="m 44.5,4 h -8 C 35.396,4 34,4.334 34,5.364 V 42.637 C 34,43.666 35.396,45 36.5,45 h 8 C 45.604,45 46,43.666 46,42.637 V 5.364 C 46,4.334 45.604,4 44.5,4 Z"
       fill="#231f20"
       id="path3"
       style="fill:#5a6168;fill-opacity:1" /><path
       d="m 61.5,29 h -8 C 52.396,29 51,28.825 51,29.228 V 43.773 C 51,44.175 52.396,45 53.5,45 h 8 C 62.604,45 63,44.175 63,43.772 V 29.228 C 63,28.825 62.604,29 61.5,29 Z"
       fill="#231f20"
       id="path4"
       style="fill:#5a6168;fill-opacity:1" /></g></svg>
