<?xml version="1.0" encoding="UTF-8" standalone="no"?>
<!-- Uploaded to: SVG Repo, www.svgrepo.com, Transformed by: SVG Repo Mixer Tools -->

<svg
   xmlns:dc="http://purl.org/dc/elements/1.1/"
   xmlns:cc="http://creativecommons.org/ns#"
   xmlns:rdf="http://www.w3.org/1999/02/22-rdf-syntax-ns#"
   xmlns:svg="http://www.w3.org/2000/svg"
   xmlns="http://www.w3.org/2000/svg"
   xmlns:sodipodi="http://sodipodi.sourceforge.net/DTD/sodipodi-0.dtd"
   xmlns:inkscape="http://www.inkscape.org/namespaces/inkscape"
   height="16.389"
   width="17.196999"
   version="1.1"
   id="Layer_1"
   viewBox="0 0 11.006079 10.48896"
   xml:space="preserve"
   sodipodi:docname="tree.svg"
   style="fill:#000000"
   inkscape:version="0.92.3 (2405546, 2018-03-11)"><metadata
   id="metadata16"><rdf:RDF><cc:Work
       rdf:about=""><dc:format>image/svg+xml</dc:format><dc:type
         rdf:resource="http://purl.org/dc/dcmitype/StillImage" /><dc:title></dc:title></cc:Work></rdf:RDF></metadata><defs
   id="defs14" /><sodipodi:namedview
   pagecolor="#ffffff"
   bordercolor="#666666"
   borderopacity="1"
   objecttolerance="10"
   gridtolerance="10"
   guidetolerance="10"
   inkscape:pageopacity="0"
   inkscape:pageshadow="2"
   inkscape:window-width="1920"
   inkscape:window-height="1009"
   id="namedview12"
   showgrid="false"
   fit-margin-top="0"
   fit-margin-left="0"
   fit-margin-right="0"
   fit-margin-bottom="0"
   inkscape:zoom="18.88"
   inkscape:cx="-1.3518889"
   inkscape:cy="6.063118"
   inkscape:window-x="-8"
   inkscape:window-y="-8"
   inkscape:window-maximized="1"
   inkscape:current-layer="Layer_1" />

<g
   id="SVGRepo_bgCarrier"
   style="stroke-width:0"
   transform="translate(-65.425,-501.51104)" />

<g
   id="SVGRepo_tracerCarrier"
   style="stroke-linecap:round;stroke-linejoin:round"
   transform="translate(-65.425,-501.51104)" />

<g
   id="SVGRepo_iconCarrier"
   transform="matrix(0.02887598,0,0,0.02048625,-1.889211,0)"
   style="fill:#5a616b;fill-opacity:1"> <g
   id="g8"
   style="fill:#5a616b;fill-opacity:1"> <g
   id="g6"
   style="fill:#5a616b;fill-opacity:1"> <path
   d="m 446.575,214.272 c 0,-22.298 -12.023,-42.027 -30.652,-52.429 4.574,-9.523 6.946,-19.849 6.946,-30.524 0,-40.747 -34.253,-73.873 -75.076,-72.004 C 337.152,24.747 304.751,0 267.853,0 c -37.521,0 -69.453,24.303 -80,59.324 -0.973,-0.051 -1.971,-0.077 -2.978,-0.077 -52.804,0 -95.753,42.974 -95.753,95.778 0,12.271 2.423,24.277 7.228,35.772 -19.123,13.346 -30.925,35.328 -30.925,59.025 0,39.748 32.324,72.073 72.047,72.073 0.401,0 0.802,0 1.203,-0.026 15.488,14.985 36.343,22.519 57.207,22.767 l 45.892,68.83 V 486.4 h -51.2 c -7.074,0 -12.8,5.726 -12.8,12.8 0,7.074 5.726,12.8 12.8,12.8 h 128 c 7.074,0 12.8,-5.726 12.8,-12.8 0,-7.074 -5.726,-12.8 -12.8,-12.8 h -51.2 v -72.525 l 52.975,-70.63 c 10.223,-2.577 19.866,-7.236 28.228,-14.217 6.895,2.5 13.995,3.772 21.197,3.772 35.302,0 64,-28.698 64,-64 0,-5.154 -0.649,-10.3 -1.929,-15.351 9.431,-10.898 14.73,-24.773 14.73,-39.177 z m -204.8,153.054 -17.997,-26.991 c 6.323,-2.048 12.339,-4.864 17.997,-8.397 z m 25.6,3.865 v -35.644 c 6.391,3.746 13.235,6.647 20.54,8.26 z m 141.5,-130.918 c -4.096,3.576 -5.504,9.353 -3.499,14.404 1.852,4.676 2.799,9.421 2.799,14.123 0,27.179 -29.952,47.701 -56.201,33.775 -5.103,-2.697 -11.349,-1.647 -15.3,2.551 -20.727,21.999 -57.421,17.323 -72.678,-7.296 -2.202,-3.576 -6.05,-5.828 -10.249,-6.025 -0.222,-0.026 -0.427,-0.026 -0.623,-0.026 -3.977,0 -7.748,1.852 -10.172,5.052 -21.504,28.126 -66.321,29.85 -89.779,3.2 -2.722,-3.123 -6.852,-4.651 -11.025,-4.275 -0.102,0.026 -4.548,0.529 -4.676,0.546 -25.626,0 -46.447,-20.847 -46.447,-46.472 0,-18.099 10.752,-34.697 27.401,-42.249 3.277,-1.476 5.777,-4.275 6.878,-7.723 1.126,-3.422 0.725,-7.151 -1.075,-10.274 -6.298,-11.025 -9.498,-22.647 -9.498,-34.551 0,-38.699 31.471,-70.178 70.153,-70.178 3.746,0 7.398,0.597 10.974,1.152 3.354,0.478 6.776,-0.324 9.549,-2.347 2.722,-1.997 4.548,-5.052 5.052,-8.397 4.318,-28.791 28.442,-49.664 57.395,-49.664 29.022,0 53.171,20.949 57.404,49.826 0.529,3.499 2.5,6.647 5.427,8.678 2.927,1.997 6.596,2.697 10.027,1.954 3.627,-0.802 6.929,-1.203 10.129,-1.203 25.626,0 46.447,20.847 46.447,46.473 0,10.377 -3.575,20.352 -10.377,28.826 -2.748,3.447 -3.55,8.047 -2.074,12.228 1.451,4.147 4.924,7.279 9.225,8.252 15.846,3.601 26.923,17.451 26.923,33.647 -0.01,9.993 -4.311,19.243 -12.11,25.993 z"
   id="path4"
   inkscape:connector-curvature="0"
   style="fill:#5a616b;fill-opacity:1" /> </g> </g> </g>

</svg>