<?xml version="1.0" encoding="UTF-8" standalone="no"?>
<svg
   width="17.197001"
   height="20.194592"
   viewBox="0 0 17.197 20.194591"
   version="1.1"
   id="svg1"
   sodipodi:docname="zoom.svg"
   xml:space="preserve"
   inkscape:version="1.3 (0e150ed6c4, 2023-07-21)"
   xmlns:inkscape="http://www.inkscape.org/namespaces/inkscape"
   xmlns:sodipodi="http://sodipodi.sourceforge.net/DTD/sodipodi-0.dtd"
   xmlns="http://www.w3.org/2000/svg"
   xmlns:svg="http://www.w3.org/2000/svg"><defs
     id="defs1" /><sodipodi:namedview
     id="namedview1"
     pagecolor="#ffffff"
     bordercolor="#000000"
     borderopacity="0.25"
     inkscape:showpageshadow="2"
     inkscape:pageopacity="0.0"
     inkscape:pagecheckerboard="0"
     inkscape:deskcolor="#d1d1d1"
     inkscape:zoom="12.591252"
     inkscape:cx="13.024916"
     inkscape:cy="23.428966"
     inkscape:window-width="1346"
     inkscape:window-height="1040"
     inkscape:window-x="182"
     inkscape:window-y="0"
     inkscape:window-maximized="0"
     inkscape:current-layer="svg1" /><g
     style="fill:#5a6168;fill-opacity:1"
     id="g1"
     transform="matrix(0.12973997,0,0,0.11455194,-2.8374459,0)"><path
       d="M 144.768,78.685 C 149.089,62.56 146.871,45.717 138.524,31.259 127.392,11.978 106.633,0 84.347,0 73.435,0 62.647,2.899 53.148,8.383 38.69,16.73 28.348,30.208 24.027,46.334 c -4.321,16.125 -2.104,32.968 6.244,47.426 11.132,19.281 31.892,31.259 54.178,31.259 8.41,0 16.745,-1.729 24.474,-5.03 l 32.507,56.303 12.99,-7.5 -32.508,-56.305 c 11.175,-8.354 19.19,-20.117 22.856,-33.802 z m -36.62,24.961 c -7.221,4.169 -15.417,6.373 -23.699,6.373 -16.944,0 -32.727,-9.104 -41.188,-23.759 C 36.917,75.272 35.232,62.471 38.516,50.217 41.8,37.96 49.66,27.717 60.648,21.373 67.87,17.204 76.064,15 84.347,15 c 16.944,0 32.726,9.104 41.187,23.759 6.344,10.988 8.029,23.789 4.746,36.044 -3.284,12.256 -11.144,22.499 -22.132,28.843 z M 91.898,55.009 h 17.5 v 15 h -17.5 v 17.5 h -15 v -17.5 h -17.5 v -15 h 17.5 v -17.5 h 15 z"
       id="path1"
       style="fill:#5a6168;fill-opacity:1" /></g></svg>
